<?xml version="1.0" encoding="utf-8"?>
<!-- Generator: Adobe Illustrator 27.5.0, SVG Export Plug-In . SVG Version: 6.00 Build 0)  -->
<svg version="1.1" xmlns="http://www.w3.org/2000/svg" xmlns:xlink="http://www.w3.org/1999/xlink" x="0px" y="0px"
	 viewBox="0 0 500 500" style="enable-background:new 0 0 500 500;" xml:space="preserve">
<g id="Background_Simple">
	<g>
		<path style="fill:#92E3A9;" d="M445.588,143.067c0,0-80.396-115.753-180.78-128.034C176.197,4.193,93.947,46.564,82.499,138.128
			c-4.079,32.625-11.343,68.717-24.243,98.484C43.792,269.988,19.1,297.782,38.015,361.952
			c18.915,64.17,98.761,122.114,156.813,121.967c58.052-0.146,112.585-52.893,157.569-100.88
			C397.381,335.052,540.662,289.947,445.588,143.067z"/>
		<path style="opacity:0.7;fill:#FFFFFF;" d="M445.588,143.067c0,0-80.396-115.753-180.78-128.034
			C176.197,4.193,93.947,46.564,82.499,138.128c-4.079,32.625-11.343,68.717-24.243,98.484
			C43.792,269.988,19.1,297.782,38.015,361.952c18.915,64.17,98.761,122.114,156.813,121.967
			c58.052-0.146,112.585-52.893,157.569-100.88C397.381,335.052,540.662,289.947,445.588,143.067z"/>
	</g>
</g>
<g id="Picture">
	<g style="opacity:0.3;">
		<rect x="80.022" y="54.637" style="fill:none;stroke:#000000;stroke-miterlimit:10;" width="171.868" height="216.764"/>
		<path style="fill:none;stroke:#000000;stroke-miterlimit:10;" d="M80.022,225.669c12.47-14.99,29.177-31.393,51.206-46.872
			c40.985-28.775,87.661-42.918,120.662-64.318"/>
		<path style="fill:none;stroke:#000000;stroke-miterlimit:10;" d="M80.022,171.258c25.516-14.415,56.29-34.304,80.677-57.691
			c27.146-26.027,34.38-45.96,35.195-58.93"/>
		<path style="fill:none;stroke:#000000;stroke-miterlimit:10;" d="M124.993,271.401c17-37.911,49.284-103.445,57.452-74.355
			c6.257,22.301-2.976,52.238-12.373,74.355"/>
		<path style="fill:none;stroke:#000000;stroke-miterlimit:10;" d="M123.331,54.637c-13.676,14.806-27.461,34.706-13.85,44.189
			c18.314,12.774,42.343-15.751,54.704-44.189"/>
		<circle style="fill:none;stroke:#000000;stroke-miterlimit:10;" cx="215.061" cy="91.464" r="22.098"/>
		<circle style="fill:none;stroke:#000000;stroke-miterlimit:10;" cx="104.223" cy="127.942" r="11.575"/>
		
			<ellipse transform="matrix(0.9742 -0.2256 0.2256 0.9742 -48.6148 32.1009)" style="fill:none;stroke:#000000;stroke-miterlimit:10;" cx="116.125" cy="228.727" rx="18" ry="18"/>
	</g>
</g>
<g id="Plant">
	<g>
		<g>
			<g>
				<g>
					<path style="fill:#9E9E9E;" d="M109.738,429.465c-5.983-101.019,32.72-170.849,33.112-171.542l2.167,1.279
						c-0.388,0.688-38.748,69.947-32.809,170.217L109.738,429.465z"/>
				</g>
				<g>
					<path style="fill:#9E9E9E;" d="M108.932,421.234c-4.47-75.437,7.767-175.135,7.891-176.134l2.456,0.403
						c-0.124,0.996-12.334,100.477-7.877,175.685L108.932,421.234z"/>
				</g>
				<g>
					<path style="fill:#9E9E9E;" d="M104.138,418.942c-4.307-39.947-3.504-67.835-2.071-84.197
						c1.558-17.801,4.112-26.021,4.22-26.361l2.362,0.83c-0.103,0.327-10.235,33.66-2.052,109.562L104.138,418.942z"/>
				</g>
				<g>
					<path style="fill:#9E9E9E;" d="M113.319,399.28l-2.461-0.35c6.62-64.842,0.369-96.205,0.305-96.514l2.421-0.406
						C113.649,302.322,119.985,333.997,113.319,399.28z"/>
				</g>
			</g>
			<g>
				<path style="fill:#9E9E9E;" d="M116.327,415.217l-2.47-0.241c2.422-42.435-6.271-65.091-6.359-65.316l2.296-0.824
					C110.163,349.769,118.784,372.167,116.327,415.217z"/>
			</g>
		</g>
		<g>
			<path style="fill:#92E3A9;" d="M117.09,256.355c0,0-9.588-15.992-13.234-36.217c-3.646-20.225,3.698-36.217,13.173-46.094
				s24.709-16.932,33.79-24.928c9.081-7.996,23.202-19.284,23.202-19.284s-5.435,28.221-5.322,54.09
				c0.113,25.869-14.795,40.92-25.757,48.916C131.979,240.833,117.09,256.355,117.09,256.355z"/>
			<path style="fill:#92E3A9;" d="M142.618,260.914c0,0-6.313-27.941,12.644-32.874s23.705,4.871,28.411,5.549
				c4.706,0.678,11.812,1.466,16.952,7.049c5.141,5.582,4.382,9.234,8.058,12.537c3.676,3.303,7.175,5.123,8.709,11.738
				s3.99,13.456,1.198,17.567c0,0-7.829-20.638-25.907-24.604C174.606,253.909,146.32,259.426,142.618,260.914z"/>
			<path style="fill:#92E3A9;" d="M110.944,290.22c0,0-2.916-25.399-8.156-38.568c-5.24-13.17-21.73-25.399-32.74-30.102
				c-11.01-4.703-19.121-7.525-21.645-11.759c-2.524-4.233-7.89-8.937-6.038,1.881c1.852,10.818,3.972,28.221,9.452,35.746
				c5.48,7.525,5.48,7.525,5.48,7.525s19.755,0,31.033,11.288c11.278,11.288,23.352,30.573,23.352,30.573L110.944,290.22z"/>
			<path style="fill:#92E3A9;" d="M111.683,296.804c0,0-21.126-22.106-31.31-29.632c-10.184-7.525-23.392-8.466-30.956-9.407
				s-15.588-13.17-15.588-13.17s5.853,28.221,13.992,43.272c8.139,15.051,29.285,14.581,40.573,14.581
				C99.684,302.448,111.683,296.804,111.683,296.804z"/>
			<path style="fill:#92E3A9;" d="M104.847,313.737c0,0,0.951-11.288,6.836-16.932c5.884-5.644,16.29-4.233,22.97-1.881
				c6.681,2.352,9.782-2.352,15.013-0.941c5.231,1.411,12.968,6.585,17.863,11.288c4.895,4.703,11.565,18.344,11.661,20.695
				c0.096,2.352-10.731-9.407-18.861-12.699c-8.13-3.292-23.219-4.233-33.567-4.233S104.847,313.737,104.847,313.737z"/>
			<path style="fill:#92E3A9;" d="M109.856,344.309c0,0-2.773-10.348-11.374-13.64c-8.6-3.292-20.772-1.881-24.535-1.881
				c-3.763,0-10.539-4.703-18.248,2.352c-7.708,7.055-10.205,15.051-10.205,15.051s8.611-7.996,21.31-7.996
				c12.699,0,17.835-0.941,24.631,4.233s20.761,13.17,20.761,13.17L109.856,344.309z"/>
			<path style="fill:#92E3A9;" d="M113.635,379.35c0,0,1.845-23.988,5.81-30.572c3.965-6.585,18.086-17.873,24.968-22.106
				c6.883-4.233,17.077-7.996,17.077-7.996s-2.285,13.17-9.745,26.339c-7.459,13.17-25.89,22.577-28.031,27.75
				c-2.141,5.174-2.928,8.937-2.928,8.937s-0.7-5.644,11.922-7.526c12.623-1.881,23.575,1.411,28,6.115
				c4.425,4.703,10.28,9.877,11.691,9.877c1.411,0,10.597,6.115,10.597,6.115s-6.94,2.822-17.403,0
				c-10.463-2.822-19.572-7.055-26.157-7.055c-6.585,0-19.659,2.352-19.659,2.352s20.829,3.292,24.199,5.174
				c3.369,1.881,15.358,7.526,15.358,7.526s-15.013,0.941-22.855,4.703c-7.843,3.763-11.375,9.407-11.75,11.759
				c-0.375,2.352-0.692,6.115-0.692,6.115l0.288,7.055H93.282c0,0,0.213-17.873-9.031-25.399
				c-9.243-7.526-23.843-7.996-23.843-7.996l-9.743,3.292c0,0,2.141-5.174,10.905-9.407s15.253-6.585,20.427-6.585
				c5.174,0,8.504,0.941,8.504,0.941s-9.32-9.407-19.216-9.877c-9.896-0.47-22.913,3.293-24.286,4.233s24.315-15.051,32.801-14.581
				c8.485,0.47,14.791,5.174,14.791,5.174l-4.578-8.466c0,0,4.042-4.704,13.832,4.703C113.635,379.35,113.635,379.35,113.635,379.35
				z"/>
		</g>
		<g style="opacity:0.2;">
			<path style="fill:none;stroke:#000000;stroke-miterlimit:10;" d="M153.342,163.018c3.025-4.542,5.167-7.427,5.167-7.427"/>
			<path style="fill:none;stroke:#000000;stroke-miterlimit:10;" d="M119.279,245.503c0,0,10.512-29.64,16.185-48.076
				c3.037-9.87,9.427-21.162,14.71-29.525"/>
			<path style="fill:none;stroke:#000000;stroke-miterlimit:10;" d="M144.682,220.827c0,0-7.091,5.318-15.954,12.054
				s-7.445,4.609-7.445,4.609l-8.154-14.182"/>
			<path style="fill:none;stroke:#000000;stroke-miterlimit:10;" d="M121.991,204.163c2.127,5.673,5.673,17.018,5.673,17.018
				l22.691-14.182"/>
			<line style="fill:none;stroke:#000000;stroke-miterlimit:10;" x1="150.878" y1="188.359" x2="159.572" y2="183.245"/>
			<polyline style="fill:none;stroke:#000000;stroke-miterlimit:10;" points="130.145,175.8 135.464,197.427 146.551,190.905 			"/>
			<path style="fill:none;stroke:#000000;stroke-miterlimit:10;" d="M194.096,245.077c1.145,0.437,2.291,1.051,3.413,1.986
				c4.255,3.545,2.127,3.9,8.509,8.154c6.382,4.255,14.865,20.134,12.573,27.262"/>
			<path style="fill:none;stroke:#000000;stroke-miterlimit:10;" d="M181.554,236.426c0,0,0,3.9,3.545,6.027
				c1.269,0.761,2.674,1.114,4.151,1.416"/>
			<path style="fill:none;stroke:#000000;stroke-miterlimit:10;" d="M62.963,234.014c-4.329-4.122-6.917-6.805-6.917-6.805"/>
			<path style="fill:none;stroke:#000000;stroke-miterlimit:10;" d="M96.548,269.43c-3.95-6.23-10.229-14.951-17.811-21.304
				c-4.501-3.771-8.584-7.417-12.007-10.579"/>
			<path style="fill:none;stroke:#000000;stroke-miterlimit:10;" d="M101.073,277.199c0,0-0.835-1.638-2.36-4.228"/>
			<line style="fill:none;stroke:#000000;stroke-miterlimit:10;" x1="87.601" y1="256.635" x2="73.773" y2="232.881"/>
			<line style="fill:none;stroke:#000000;stroke-miterlimit:10;" x1="71.646" y1="242.808" x2="59.592" y2="239.263"/>
			<path style="fill:none;stroke:#000000;stroke-miterlimit:10;" d="M75.31,287.372c-2.824-1.082-5.228-2.134-6.854-3.083
				c-8.509-4.964-18.791-12.054-21.982-16.309"/>
			<path style="fill:none;stroke:#000000;stroke-miterlimit:10;" d="M106.746,297.053c0,0-15.039-3.939-26.796-8"/>
			<polyline style="fill:none;stroke:#000000;stroke-miterlimit:10;" points="52.501,283.935 68.455,284.29 61.01,273.299 			"/>
			<polyline style="fill:none;stroke:#000000;stroke-miterlimit:10;" points="72.001,292.799 89.019,291.735 79.801,278.971 			"/>
			<path style="fill:none;stroke:#000000;stroke-miterlimit:10;" d="M146.146,300.576c0.852,0.431,1.887,0.911,3.145,1.44
				c6.736,2.836,7.091,0.355,13.473,4.609c6.382,4.254,7.8,8.509,10.991,12.054"/>
			<path style="fill:none;stroke:#000000;stroke-miterlimit:10;" d="M142.2,297.762c0,0,0.163,0.651,2.36,1.951"/>
			<path style="fill:none;stroke:#000000;stroke-miterlimit:10;" d="M142.207,338.943c3.336-3.784,4.957-6.436,4.957-6.436"/>
			<path style="fill:none;stroke:#000000;stroke-miterlimit:10;" d="M117.027,368.316c0,0,9.927-15.245,18.082-22.336
				c0.855-0.744,1.663-1.479,2.426-2.201"/>
		</g>
	</g>
</g>
<g id="Table">
	
		<line style="fill:none;stroke:#263238;stroke-linecap:round;stroke-linejoin:round;stroke-miterlimit:10;" x1="486.11" y1="433.91" x2="18.937" y2="433.91"/>
</g>
<g id="Seat">
	<path style="fill:#949494;stroke:#263238;stroke-linecap:round;stroke-linejoin:round;stroke-miterlimit:10;" d="M453.412,280.158
		H338.166c-2.784,0-5.175,1.805-5.701,4.302l-31.438,149.45h127.068l31.017-147.449C459.8,283.191,457.057,280.158,453.412,280.158z
		"/>
</g>
<g id="Character">
	<g>
		<path style="fill:#263238;stroke:#263238;stroke-linecap:round;stroke-linejoin:round;stroke-miterlimit:10;" d="M309.526,177.823
			c0,0-14.833,9.979-14.024,17.53s8.9,13.755,8.9,13.755s11.057-26.7,11.867-26.97S309.526,177.823,309.526,177.823z"/>
		<path style="fill:#263238;stroke:#263238;stroke-linecap:round;stroke-linejoin:round;stroke-miterlimit:10;" d="M302.717,241.13
			c0,0,2.563,11.719,0.732,17.578c-1.831,5.859-1.831,5.859-1.831,5.859s16.846,5.127,22.339,2.197
			c5.493-2.93,6.226-4.761,6.226-4.761S308.943,238.201,302.717,241.13z"/>
		<path style="fill:#263238;stroke:#263238;stroke-linecap:round;stroke-linejoin:round;stroke-miterlimit:10;" d="M299.9,298.621
			c0,0,29.061-2.034,43.591,0c14.53,2.034,16.274,2.325,16.274,2.325s-12.787,44.463-20.924,61.9
			c-8.137,17.436-26.736,32.258-26.736,32.258S283.335,345.7,299.9,298.621z"/>
		<path style="fill:#FFFFFF;stroke:#263238;stroke-linecap:round;stroke-linejoin:round;stroke-miterlimit:10;" d="M312.762,180.25
			c0,0-8.9,19.418-9.709,23.733c-0.809,4.315-0.27,12.676-0.27,15.912c0,3.236-2.697,14.833-2.697,17.8
			c0,2.967,11.327,26.43,14.294,27.509c2.967,1.079,6.742-0.539,6.742-0.539s1.349,10.039,1.079,12.197
			c-0.27,2.158-7.012,5.124-7.012,5.124s-8.9,17.53-7.012,23.733c1.888,6.203,8.9,12.136,21.576,10.518
			c12.676-1.618,18.609-5.664,22.115-16.182c3.506-10.518,6.203-21.036,6.203-21.036s-4.046,0.479-4.046-4.106
			c0-4.585,0.27-26.43,0.27-26.43s3.776-37.758-7.821-53.13C334.878,179.98,316.808,172.968,312.762,180.25z"/>
		<g>
			<path style="fill:#263238;stroke:#263238;stroke-linecap:round;stroke-linejoin:round;stroke-miterlimit:10;" d="
				M307.638,177.283c0,0,22.924,23.464,30.745,36.948c7.821,13.485,0.809,51.512,3.776,51.512c2.967,0,13.039-0.292,36.233-11.35
				c23.194-11.058,22.654-32.633,16.991-48.276c-5.664-15.642-19.512-33.959-31.918-40.162
				C351.059,159.753,316.808,157.326,307.638,177.283z"/>
			<g>
				<path style="fill:none;stroke:#B2B2B2;stroke-linecap:round;stroke-linejoin:round;stroke-miterlimit:10;" d="M344.707,221.389
					c4.299,8.788,12.715,27.744,11.259,38.793"/>
				<path style="fill:none;stroke:#B2B2B2;stroke-linecap:round;stroke-linejoin:round;stroke-miterlimit:10;" d="M342.299,216.661
					c0,0,0.361,0.666,0.966,1.847"/>
				<path style="fill:none;stroke:#B2B2B2;stroke-linecap:round;stroke-linejoin:round;stroke-miterlimit:10;" d="M381.144,241.078
					c1.069,4.598,0.36,7.414,0.36,7.954"/>
				<path style="fill:none;stroke:#B2B2B2;stroke-linecap:round;stroke-linejoin:round;stroke-miterlimit:10;" d="M317.481,178.175
					c0,0-5.036,2.877,32.012,27.336c19.136,12.634,27.044,23.444,30.218,31.142"/>
			</g>
		</g>
		<path style="fill:none;stroke:#263238;stroke-linecap:round;stroke-linejoin:round;stroke-miterlimit:10;" d="M322.471,220.974
			c0,0,4.045,3.776,9.979,1.079"/>
		<path style="fill:none;stroke:#263238;stroke-linecap:round;stroke-linejoin:round;stroke-miterlimit:10;" d="M304.941,220.435
			c0,0,2.158,2.697,5.933,0.27"/>
		<path style="fill:none;stroke:#263238;stroke-linecap:round;stroke-linejoin:round;stroke-miterlimit:10;" d="M310.335,210.726
			c0,0,2.697,6.473,2.697,9.439c0,2.967-1.349,5.124-1.349,5.124"/>
		<path style="fill:none;stroke:#263238;stroke-linecap:round;stroke-linejoin:round;stroke-miterlimit:10;" d="M308.717,238.235
			c0,0,1.888,1.618,4.315,2.427"/>
		<path style="fill:none;stroke:#263238;stroke-linecap:round;stroke-linejoin:round;stroke-miterlimit:10;" d="M311.414,244.977
			c0,0,8.9,4.045,15.103-0.809"/>
		<path style="fill:none;stroke:#263238;stroke-linecap:round;stroke-linejoin:round;stroke-miterlimit:10;" d="M319.235,210.726
			c0,0,11.327-3.506,15.642,3.236"/>
		<path style="fill:none;stroke:#263238;stroke-linecap:round;stroke-linejoin:round;stroke-miterlimit:10;" d="M304.402,209.108
			c0,0,2.697-2.158,4.315-0.27"/>
		<polygon style="fill:#263238;stroke:#263238;stroke-linecap:round;stroke-linejoin:round;stroke-miterlimit:10;" points="
			321.123,264.665 333.799,261.968 321.932,272.486 		"/>
		<path style="fill:#FFFFFF;stroke:#263238;stroke-linecap:round;stroke-linejoin:round;stroke-miterlimit:10;" d="M322.067,278.345
			c0,1.117-0.906,2.023-2.023,2.023s-2.023-0.906-2.023-2.023c0-1.117,0.906-2.023,2.023-2.023S322.067,277.228,322.067,278.345z"/>
		<path style="fill:#FFFFFF;stroke:#263238;stroke-linecap:round;stroke-linejoin:round;stroke-miterlimit:10;" d="M321.528,281.716
			c0,1.117-0.906,2.023-2.023,2.023c-1.117,0-2.023-0.906-2.023-2.023c0-1.117,0.906-2.023,2.023-2.023
			C320.622,279.694,321.528,280.599,321.528,281.716z"/>
		<path style="fill:#FFFFFF;stroke:#263238;stroke-linecap:round;stroke-linejoin:round;stroke-miterlimit:10;" d="M320.988,285.087
			c0,1.117-0.906,2.023-2.023,2.023c-1.117,0-2.023-0.906-2.023-2.023c0-1.117,0.906-2.023,2.023-2.023
			C320.083,283.065,320.988,283.97,320.988,285.087z"/>
		<path style="fill:#FFFFFF;stroke:#263238;stroke-linecap:round;stroke-linejoin:round;stroke-miterlimit:10;" d="M357.905,276.98
			c0,1.117-0.906,2.023-2.023,2.023c-1.117,0-2.023-0.906-2.023-2.023s0.906-2.023,2.023-2.023
			C357,274.957,357.905,275.863,357.905,276.98z"/>
		<path style="fill:#FFFFFF;stroke:#263238;stroke-linecap:round;stroke-linejoin:round;stroke-miterlimit:10;" d="M356.027,279.045
			c0,1.117-0.906,2.023-2.023,2.023c-1.117,0-2.023-0.906-2.023-2.023c0-1.117,0.906-2.023,2.023-2.023
			C355.122,277.022,356.027,277.928,356.027,279.045z"/>
		
			<circle style="fill:#FFFFFF;stroke:#263238;stroke-linecap:round;stroke-linejoin:round;stroke-miterlimit:10;" cx="351.825" cy="281.225" r="2.023"/>
		<path style="fill:#FFFFFF;stroke:#263238;stroke-linecap:round;stroke-linejoin:round;stroke-miterlimit:10;" d="M351.438,283.404
			c0,1.117-0.906,2.023-2.023,2.023s-2.023-0.906-2.023-2.023c0-1.117,0.906-2.023,2.023-2.023S351.438,282.287,351.438,283.404z"/>
		<path style="fill:#FFFFFF;stroke:#263238;stroke-linecap:round;stroke-linejoin:round;stroke-miterlimit:10;" d="M348.914,285.469
			c0,1.117-0.906,2.023-2.023,2.023c-1.117,0-2.023-0.906-2.023-2.023s0.906-2.023,2.023-2.023
			C348.009,283.447,348.914,284.352,348.914,285.469z"/>
		
			<circle style="fill:#FFFFFF;stroke:#263238;stroke-linecap:round;stroke-linejoin:round;stroke-miterlimit:10;" cx="343.909" cy="287.879" r="2.023"/>
		<path style="fill:#FFFFFF;stroke:#263238;stroke-linecap:round;stroke-linejoin:round;stroke-miterlimit:10;" d="M343.522,289.757
			c0,1.117-0.906,2.023-2.023,2.023c-1.117,0-2.023-0.906-2.023-2.023c0-1.117,0.906-2.023,2.023-2.023
			C342.617,287.734,343.522,288.639,343.522,289.757z"/>
		<path style="fill:#FFFFFF;stroke:#263238;stroke-linecap:round;stroke-linejoin:round;stroke-miterlimit:10;" d="M340.654,292.468
			c0,1.117-0.906,2.023-2.023,2.023s-2.023-0.906-2.023-2.023s0.906-2.023,2.023-2.023S340.654,291.35,340.654,292.468z"/>
		<path style="fill:#FFFFFF;stroke:#263238;stroke-linecap:round;stroke-linejoin:round;stroke-miterlimit:10;" d="M337.714,294.189
			c0,1.117-0.906,2.023-2.023,2.023c-1.117,0-2.023-0.906-2.023-2.023s0.906-2.023,2.023-2.023
			C336.808,292.166,337.714,293.071,337.714,294.189z"/>
		<path style="fill:#FFFFFF;stroke:#263238;stroke-linecap:round;stroke-linejoin:round;stroke-miterlimit:10;" d="M334.501,296.024
			c0,1.117-0.906,2.023-2.023,2.023c-1.117,0-2.023-0.906-2.023-2.023c0-1.117,0.906-2.023,2.023-2.023
			C333.596,294.001,334.501,294.907,334.501,296.024z"/>
		<path style="fill:#FFFFFF;stroke:#263238;stroke-linecap:round;stroke-linejoin:round;stroke-miterlimit:10;" d="M320.692,289.026
			c0,1.117-0.906,2.023-2.023,2.023s-2.023-0.906-2.023-2.023c0-1.117,0.906-2.023,2.023-2.023S320.692,287.909,320.692,289.026z"/>
		
			<circle style="fill:#FFFFFF;stroke:#263238;stroke-linecap:round;stroke-linejoin:round;stroke-miterlimit:10;" cx="319.014" cy="292.353" r="2.023"/>
		<path style="fill:#FFFFFF;stroke:#263238;stroke-linecap:round;stroke-linejoin:round;stroke-miterlimit:10;" d="M321.779,295.545
			c0,1.117-0.906,2.023-2.023,2.023s-2.023-0.906-2.023-2.023c0-1.117,0.906-2.023,2.023-2.023S321.779,294.428,321.779,295.545z"/>
		
			<circle style="fill:#FFFFFF;stroke:#263238;stroke-linecap:round;stroke-linejoin:round;stroke-miterlimit:10;" cx="322.341" cy="297.63" r="2.023"/>
		<path style="fill:#FFFFFF;stroke:#263238;stroke-linecap:round;stroke-linejoin:round;stroke-miterlimit:10;" d="M331.132,297.286
			c0,1.117-0.906,2.023-2.023,2.023c-1.117,0-2.023-0.906-2.023-2.023s0.906-2.023,2.023-2.023
			C330.227,295.263,331.132,296.169,331.132,297.286z"/>
		<path style="fill:#FFFFFF;stroke:#263238;stroke-linecap:round;stroke-linejoin:round;stroke-miterlimit:10;" d="M328.034,298.319
			c0,1.117-0.906,2.023-2.023,2.023c-1.117,0-2.023-0.906-2.023-2.023c0-1.117,0.906-2.023,2.023-2.023
			C327.129,296.296,328.034,297.201,328.034,298.319z"/>
		<path style="fill:#92E3A9;stroke:#263238;stroke-linecap:round;stroke-linejoin:round;stroke-miterlimit:10;" d="M357.905,276.98
			c0,0-9.195,30.463-14.583,44.409c-5.388,13.946-19.652,44.692-19.652,44.692s-13.312-18.384-15.531-40.888
			c-2.219-22.504,7.05-43.206,7.05-43.206s-24.458,8.412-30.481,10.63c-6.022,2.219-12.868,5.412-15.404,11.435
			c-2.536,6.022-30.815,85.891-32.082,89.061c-1.268,3.17-3.803,3.487-0.317,8.875c3.487,5.388,20.286,5.705,23.455,2.853
			c3.17-2.853,21.47-29.884,21.47-29.884l6.656,12.995l2.853,39.303l-0.634,6.656h85.263l-0.951-23.138
			c0,0,31.724-79.866,34.259-93.495c2.536-13.629-1.268-20.919-6.973-25.04C396.599,288.117,357.905,276.98,357.905,276.98z"/>
		<path style="fill:#FFFFFF;stroke:#263238;stroke-linecap:round;stroke-linejoin:round;stroke-miterlimit:10;" d="M303.844,301.095
			c0,0-2.582-0.704-3.52,1.878c-0.939,2.581-1.643,4.928-1.643,4.928s-3.286,4.694-3.99,7.041s-2.582,21.122-3.051,22.765
			c-0.469,1.643-2.112,10.092-2.112,10.092l-2.582,3.99l6.806,11.734c0,0,3.755-0.235,7.275-5.633
			c3.52-5.398,3.52-4.928,4.224-11.734c0.704-6.806,1.408-43.887,1.408-43.887S305.252,300.626,303.844,301.095z"/>
		<g>
			<path style="fill:#FFFFFF;stroke:#263238;stroke-linecap:round;stroke-linejoin:round;stroke-miterlimit:10;" d="
				M317.691,360.002c0,0-0.704-4.928,0.469-6.571c1.173-1.643,3.52-1.878,3.99-7.275c0.469-5.398-1.173-10.561-0.235-16.428
				c0.939-5.867,3.52-4.694,3.286-7.275c-0.235-2.582-3.99-3.051-5.163-1.173c-1.173,1.878-2.347,4.224-2.347,4.224
				s-0.939-15.02-1.408-19.949c-0.469-4.928-3.755-6.337-3.755-6.337s-1.408-3.99-3.286-3.051c-1.878,0.939-2.112,2.112-2.112,2.112
				s-2.347,1.173-3.286,2.816c-0.939,1.643-0.704,4.224-0.704,4.224s-2.347,2.112-3.051,4.694
				c-0.704,2.582-3.52,19.245-3.755,25.816c-0.235,6.571,0,18.071,1.173,20.183c1.173,2.112,4.224,6.571,4.224,6.571l1.878,5.633
				C303.609,368.216,312.527,360.941,317.691,360.002z"/>
			<path style="fill:#FFFFFF;stroke:#263238;stroke-linecap:round;stroke-linejoin:round;stroke-miterlimit:10;" d="M303.14,305.32
				c0,0,1.408,0.704,1.173,3.99c-0.235,3.286-1.878,18.306-1.878,18.306"/>
			<path style="fill:#FFFFFF;stroke:#263238;stroke-linecap:round;stroke-linejoin:round;stroke-miterlimit:10;" d="M307.13,298.279
				c0,0,1.867-1.099,1.403,2.971c-0.464,4.07-0.464,24.488-0.464,24.488"/>
			<path style="fill:#FFFFFF;stroke:#263238;stroke-linecap:round;stroke-linejoin:round;stroke-miterlimit:10;" d="
				M312.527,299.218c0,0,0.939,19.01,0.469,24.408"/>
			<path style="fill:#FFFFFF;stroke:#263238;stroke-linecap:round;stroke-linejoin:round;stroke-miterlimit:10;" d="
				M317.691,325.503c0,0,1.135,6.894,1.604,8.537"/>
		</g>
		<path style="fill:#92E3A9;stroke:#263238;stroke-linecap:round;stroke-linejoin:round;stroke-miterlimit:10;" d="M287.554,348.784
			l10.138,13.705c0,0-21.824,33.218-25.236,38.637c-3.412,5.419-14.442,18.102-20.665,19.707c-6.222,1.606-9.634,0-13.046-4.817
			c-3.412-4.817-8.43-13.046-6.222-18.465c2.208-5.419,18.858-21.112,24.077-23.922
			C261.818,370.818,287.554,348.784,287.554,348.784z"/>
		<path style="fill:#92E3A9;stroke:#263238;stroke-linecap:round;stroke-linejoin:round;stroke-miterlimit:10;" d="M395.362,291.536
			c0,0,5.018,0.401,6.943,0.701c1.925,0.299,5.502,5.12,6.906,8.13c1.405,3.011,1.405,14.451,0.803,20.874
			c-0.602,6.423-13.822,54.423-16.632,69.276c-2.81,14.853-12.46,36.979-14.266,39.588c-1.806,2.609-5.219,5.018-8.631,4.817
			c-3.412-0.201-24.569-14.93-32.397-22.557c-7.828-7.627-37.734-46.966-37.734-46.966s3.813-6.021,7.226-8.029
			s10.638-3.211,10.638-3.211s13.247,11.441,23.483,19.87c10.236,8.43,20.272,14.05,20.272,14.05s4.414-25.58,5.016-28.591
			c0.602-3.011,5.35-28.889,5.35-28.889"/>
		<path style="fill:none;stroke:#263238;stroke-linecap:round;stroke-linejoin:round;stroke-miterlimit:10;" d="M361.973,388.08
			c0,0,7.226,2.81,9.032,13.448"/>
		<path style="fill:none;stroke:#263238;stroke-linecap:round;stroke-linejoin:round;stroke-miterlimit:10;" d="M362.374,390.689
			c0,0,4.215,3.011,3.211,9.634"/>
		<path style="fill:none;stroke:#263238;stroke-linecap:round;stroke-linejoin:round;stroke-miterlimit:10;" d="M276.871,356.769
			c0,0-1.806-6.824,1.004-14.451c2.81-7.627,9.032-28.903,9.032-28.903"/>
	</g>
</g>
<g id="Flowers">
	<g style="opacity:0.3;">
		<path style="fill:none;stroke:#000000;stroke-miterlimit:10;" d="M437.745,179.675c16.988,10.864,8.181,19.671-2.682,2.682
			c-10.864,16.988-19.671,8.181-2.682-2.682c-16.988-10.864-8.181-19.671,2.682-2.682
			C445.926,160.004,454.733,168.811,437.745,179.675z"/>
		<path style="fill:none;stroke:#000000;stroke-miterlimit:10;" d="M436.959,177.778c19.694-4.331,19.694,8.124,0,3.793
			c4.331,19.694-8.124,19.694-3.793,0c-19.694,4.331-19.694-8.124,0-3.793C428.835,158.084,441.29,158.084,436.959,177.778z"/>
	</g>
	<g style="opacity:0.3;">
		<path style="fill:none;stroke:#000000;stroke-miterlimit:10;" d="M303.416,128.01c11.25,7.194,5.418,13.026-1.776,1.776
			c-7.194,11.25-13.026,5.418-1.776-1.776c-11.25-7.194-5.418-13.026,1.776-1.776C308.834,114.984,314.666,120.816,303.416,128.01z"
			/>
		<path style="fill:none;stroke:#000000;stroke-miterlimit:10;" d="M302.896,126.754c13.042-2.868,13.042,5.38,0,2.512
			c2.868,13.042-5.38,13.042-2.512,0c-13.042,2.868-13.042-5.38,0-2.512C297.516,113.713,305.764,113.713,302.896,126.754z"/>
	</g>
	<g style="opacity:0.3;">
		<path style="fill:none;stroke:#000000;stroke-miterlimit:10;" d="M240.579,322.853c11.25,7.194,5.418,13.026-1.776,1.776
			c-7.194,11.25-13.026,5.418-1.776-1.776c-11.25-7.194-5.418-13.026,1.776-1.776C245.997,309.827,251.829,315.659,240.579,322.853z
			"/>
		<path style="fill:none;stroke:#000000;stroke-miterlimit:10;" d="M240.059,321.598c13.042-2.868,13.042,5.38,0,2.512
			c2.868,13.042-5.38,13.042-2.512,0c-13.042,2.868-13.042-5.38,0-2.512C234.679,308.556,242.926,308.556,240.059,321.598z"/>
	</g>
	<g style="opacity:0.3;">
		<path style="fill:none;stroke:#000000;stroke-miterlimit:10;" d="M407.287,255.446c11.25,7.194,5.418,13.026-1.776,1.776
			c-7.194,11.25-13.026,5.418-1.776-1.776c-11.25-7.194-5.418-13.026,1.776-1.776C412.705,242.42,418.537,248.252,407.287,255.446z"
			/>
		<path style="fill:none;stroke:#000000;stroke-miterlimit:10;" d="M406.767,254.19c13.042-2.868,13.042,5.38,0,2.512
			c2.868,13.042-5.38,13.042-2.512,0c-13.042,2.868-13.042-5.38,0-2.512C401.387,241.148,409.634,241.148,406.767,254.19z"/>
	</g>
	<g style="opacity:0.3;">
		<path style="fill:none;stroke:#000000;stroke-miterlimit:10;" d="M238.115,182.797c18.074,11.558,8.704,20.927-2.854,2.854
			c-11.558,18.074-20.927,8.704-2.854-2.854c-18.074-11.558-8.704-20.927,2.854-2.854C246.82,161.87,256.189,171.24,238.115,182.797
			z"/>
		<path style="fill:none;stroke:#000000;stroke-miterlimit:10;" d="M237.28,180.779c20.953-4.607,20.953,8.643,0,4.036
			c4.607,20.953-8.643,20.953-4.036,0c-20.953,4.607-20.953-8.643,0-4.036C228.636,159.827,241.887,159.827,237.28,180.779z"/>
	</g>
</g>
<g id="Clock">
	<g style="opacity:0.3;">
		
			<ellipse transform="matrix(0.2645 -0.9644 0.9644 0.2645 191.4068 462.3743)" style="fill:none;stroke:#000000;stroke-linecap:round;stroke-linejoin:round;stroke-miterlimit:10;" cx="398.85" cy="105.695" rx="48.256" ry="48.256"/>
		
			<ellipse transform="matrix(0.9278 -0.373 0.373 0.9278 -10.6421 156.38)" style="fill:none;stroke:#000000;stroke-linecap:round;stroke-linejoin:round;stroke-miterlimit:10;" cx="398.85" cy="105.695" rx="42.486" ry="42.486"/>
		<path style="fill:none;stroke:#000000;stroke-linecap:round;stroke-linejoin:round;stroke-miterlimit:10;" d="M401.807,105.695
			c0,1.633-1.324,2.957-2.957,2.957s-2.957-1.324-2.957-2.957c0-1.633,1.324-2.957,2.957-2.957S401.807,104.062,401.807,105.695z"/>
		
			<line style="fill:none;stroke:#000000;stroke-linecap:round;stroke-linejoin:round;stroke-miterlimit:10;" x1="401.996" y1="104.81" x2="412.278" y2="101.597"/>
		
			<line style="fill:none;stroke:#000000;stroke-linecap:round;stroke-linejoin:round;stroke-miterlimit:10;" x1="398.85" y1="108.652" x2="398.85" y2="139.511"/>
	</g>
</g>
<g id="Device">
	<g>
		<path style="fill:#FFFFFF;stroke:#263238;stroke-linecap:round;stroke-linejoin:round;stroke-miterlimit:10;" d="M244.077,453.663
			l61.187-15.408c0.943-0.237,1.306-3.142,0.334-3.142l-90.249,1.518L244.077,453.663z"/>
		<path style="fill:#FFFFFF;stroke:#263238;stroke-linecap:round;stroke-linejoin:round;stroke-miterlimit:10;" d="M244.077,452.11
			l61.187-15.408c0.943-0.237,0.771-1.625-0.201-1.625H215.35L244.077,452.11z"/>
		<polygon style="fill:#949494;stroke:#263238;stroke-linecap:round;stroke-linejoin:round;stroke-miterlimit:10;" points="
			237.905,440.558 268.791,440.558 234.387,447.595 		"/>
		<path style="fill:#FFFFFF;stroke:#263238;stroke-linecap:round;stroke-linejoin:round;stroke-miterlimit:10;" d="M244.077,453.663
			H105.13L89.133,371.13c-0.579-2.989,1.71-5.766,4.756-5.766h129.079c2.32,0,4.314,1.645,4.756,3.922L244.077,453.663z"/>
		<path style="fill:#C2C2C2;stroke:#263238;stroke-linecap:round;stroke-linejoin:round;stroke-miterlimit:10;" d="M241.903,453.663
			H102.956L86.959,371.13c-0.579-2.989,1.71-5.766,4.756-5.766h129.079c2.32,0,4.314,1.645,4.756,3.922L241.903,453.663z"/>
		<circle style="fill:#999999;" cx="159.138" cy="410.425" r="10.139"/>
	</g>
</g>
<g id="Mug">
	<g>
		<g>
			<path style="fill:#FFFFFF;stroke:#263238;stroke-linecap:round;stroke-linejoin:round;stroke-miterlimit:10;" d="
				M439.916,409.902c0,0,5.377-2.833,7.988-0.802c2.612,2.031,4.489,7.476,4.489,12.409c0,4.933-2.031,9.866-5.513,12.187
				c-3.482,2.321-9.866,0.58-9.866,0.58l0.29-4.933c0,0,4.933,2.031,7.835-1.741c2.902-3.772,1.161-11.026-0.58-12.767
				s-5.803,2.321-5.803,2.321L439.916,409.902z"/>
			<polygon style="fill:#FFFFFF;stroke:#263238;stroke-linecap:round;stroke-linejoin:round;stroke-miterlimit:10;" points="
				442.453,401.527 404.784,401.527 408.551,448.09 438.686,448.09 			"/>
		</g>
		<g>
			<g>
				<path style="fill:none;stroke:#263238;stroke-linecap:round;stroke-linejoin:round;stroke-miterlimit:10;" d="M413.889,368.911
					c0,7.292-4,7.292-4,14.584c0,7.292,4,7.292,4,14.584"/>
			</g>
			<g>
				<path style="fill:none;stroke:#263238;stroke-linecap:round;stroke-linejoin:round;stroke-miterlimit:10;" d="M421.615,377.564
					c-0.711,1.46-1.282,3.175-1.282,5.931c0,7.292,4,7.292,4,14.584"/>
				<path style="fill:none;stroke:#263238;stroke-linecap:round;stroke-linejoin:round;stroke-miterlimit:10;" d="M424.332,368.911
					c0,2.268-0.387,3.83-0.92,5.126"/>
			</g>
			<g>
				<path style="fill:none;stroke:#263238;stroke-linecap:round;stroke-linejoin:round;stroke-miterlimit:10;" d="M431.744,388.737
					c1.184,2.798,3.032,4.386,3.032,9.342"/>
				<path style="fill:none;stroke:#263238;stroke-linecap:round;stroke-linejoin:round;stroke-miterlimit:10;" d="M434.775,368.911
					c0,7.292-4,7.292-4,14.584"/>
			</g>
		</g>
	</g>
</g>
</svg>
