<svg width="43" height="43" viewBox="0 0 43 43" fill="none" xmlns="http://www.w3.org/2000/svg">
<path d="M4.60714 9.2167H1.53571C1.12842 9.2167 0.737803 9.05491 0.4498 8.76693C0.161798 8.47895 0 8.08836 0 7.68109C0 7.27383 0.161798 6.88324 0.4498 6.59526C0.737803 6.30728 1.12842 6.14549 1.53571 6.14549H13.8214V1.5356C13.8214 1.12834 13.9832 0.73775 14.2712 0.449768C14.5592 0.161787 14.9498 0 15.3571 0H27.6429C28.0502 0 28.4408 0.161787 28.7288 0.449768C29.0168 0.73775 29.1786 1.12834 29.1786 1.5356V6.14549H41.4643C41.8716 6.14549 42.2622 6.30728 42.5502 6.59526C42.8382 6.88324 43 7.27383 43 7.68109C43 8.08836 42.8382 8.47895 42.5502 8.76693C42.2622 9.05491 41.8716 9.2167 41.4643 9.2167H38.3929V41.4644C38.3929 41.8717 38.2311 42.2623 37.9431 42.5502C37.6551 42.8382 37.2644 43 36.8571 43H6.14286C5.73556 43 5.34495 42.8382 5.05694 42.5502C4.76894 42.2623 4.60714 41.8717 4.60714 41.4644V9.2167ZM26.1071 6.14549V3.07428H16.8929V6.14549H26.1071ZM7.67857 39.9288H35.3214V9.2167H7.67857V39.9288ZM16.8929 33.7864C16.4856 33.7864 16.0949 33.6246 15.8069 33.3366C15.5189 33.0486 15.3571 32.658 15.3571 32.2508V16.8947C15.3571 16.4875 15.5189 16.0969 15.8069 15.8089C16.0949 15.5209 16.4856 15.3591 16.8929 15.3591C17.3002 15.3591 17.6908 15.5209 17.9788 15.8089C18.2668 16.0969 18.4286 16.4875 18.4286 16.8947V32.2508C18.4286 32.658 18.2668 33.0486 17.9788 33.3366C17.6908 33.6246 17.3002 33.7864 16.8929 33.7864ZM26.1071 33.7864C25.6998 33.7864 25.3092 33.6246 25.0212 33.3366C24.7332 33.0486 24.5714 32.658 24.5714 32.2508V16.8947C24.5714 16.4875 24.7332 16.0969 25.0212 15.8089C25.3092 15.5209 25.6998 15.3591 26.1071 15.3591C26.5144 15.3591 26.9051 15.5209 27.1931 15.8089C27.4811 16.0969 27.6429 16.4875 27.6429 16.8947V32.2508C27.6429 32.658 27.4811 33.0486 27.1931 33.3366C26.9051 33.6246 26.5144 33.7864 26.1071 33.7864Z" fill="#888888"/>
</svg>
