<svg width="39" height="45" viewBox="0 0 39 45" fill="none" xmlns="http://www.w3.org/2000/svg">
<path d="M13.5036 25.2143H10.1107C9.5509 25.2143 9.09287 24.7562 9.09287 24.1964V20.8036C9.09287 20.2437 9.5509 19.7857 10.1107 19.7857H13.5036C14.0634 19.7857 14.5214 20.2437 14.5214 20.8036V24.1964C14.5214 24.7562 14.0634 25.2143 13.5036 25.2143ZM22.6643 24.1964V20.8036C22.6643 20.2437 22.2063 19.7857 21.6464 19.7857H18.2536C17.6938 19.7857 17.2357 20.2437 17.2357 20.8036V24.1964C17.2357 24.7562 17.6938 25.2143 18.2536 25.2143H21.6464C22.2063 25.2143 22.6643 24.7562 22.6643 24.1964ZM30.8072 24.1964V20.8036C30.8072 20.2437 30.3491 19.7857 29.7893 19.7857H26.3964C25.8366 19.7857 25.3786 20.2437 25.3786 20.8036V24.1964C25.3786 24.7562 25.8366 25.2143 26.3964 25.2143H29.7893C30.3491 25.2143 30.8072 24.7562 30.8072 24.1964ZM22.6643 32.3393V28.9464C22.6643 28.3866 22.2063 27.9286 21.6464 27.9286H18.2536C17.6938 27.9286 17.2357 28.3866 17.2357 28.9464V32.3393C17.2357 32.8991 17.6938 33.3571 18.2536 33.3571H21.6464C22.2063 33.3571 22.6643 32.8991 22.6643 32.3393ZM14.5214 32.3393V28.9464C14.5214 28.3866 14.0634 27.9286 13.5036 27.9286H10.1107C9.5509 27.9286 9.09287 28.3866 9.09287 28.9464V32.3393C9.09287 32.8991 9.5509 33.3571 10.1107 33.3571H13.5036C14.0634 33.3571 14.5214 32.8991 14.5214 32.3393ZM30.8072 32.3393V28.9464C30.8072 28.3866 30.3491 27.9286 29.7893 27.9286H26.3964C25.8366 27.9286 25.3786 28.3866 25.3786 28.9464V32.3393C25.3786 32.8991 25.8366 33.3571 26.3964 33.3571H29.7893C30.3491 33.3571 30.8072 32.8991 30.8072 32.3393ZM38.95 10.2857V40.1428C38.95 42.3906 37.1264 44.2143 34.8786 44.2143H5.02144C2.77367 44.2143 0.950012 42.3906 0.950012 40.1428V10.2857C0.950012 8.03794 2.77367 6.21428 5.02144 6.21428H9.09287V1.80356C9.09287 1.24374 9.5509 0.785706 10.1107 0.785706H13.5036C14.0634 0.785706 14.5214 1.24374 14.5214 1.80356V6.21428H25.3786V1.80356C25.3786 1.24374 25.8366 0.785706 26.3964 0.785706H29.7893C30.3491 0.785706 30.8072 1.24374 30.8072 1.80356V6.21428H34.8786C37.1264 6.21428 38.95 8.03794 38.95 10.2857ZM34.8786 39.6339V14.3571H5.02144V39.6339C5.02144 39.9138 5.25046 40.1428 5.53037 40.1428H34.3697C34.6496 40.1428 34.8786 39.9138 34.8786 39.6339Z" fill="#5D50FA"/>
</svg>
