<svg width="43" height="43" viewBox="0 0 43 43" fill="none" xmlns="http://www.w3.org/2000/svg">
<path d="M19.7084 7.16666H7.16671C6.21635 7.16666 5.30491 7.54419 4.63291 8.21619C3.9609 8.8882 3.58337 9.79963 3.58337 10.75V35.8333C3.58337 36.7837 3.9609 37.6951 4.63291 38.3671C5.30491 39.0391 6.21635 39.4167 7.16671 39.4167H32.25C33.2004 39.4167 34.1118 39.0391 34.7838 38.3671C35.4558 37.6951 35.8334 36.7837 35.8334 35.8333V23.2917" stroke="#888888" stroke-width="2" stroke-linecap="round" stroke-linejoin="round"/>
<path d="M33.1459 4.47917C33.8586 3.7664 34.8254 3.36597 35.8334 3.36597C36.8414 3.36597 37.8081 3.7664 38.5209 4.47917C39.2336 5.19194 39.6341 6.15866 39.6341 7.16667C39.6341 8.17467 39.2336 9.1414 38.5209 9.85417L21.5 26.875L14.3334 28.6667L16.125 21.5L33.1459 4.47917Z" stroke="#888888" stroke-width="2" stroke-linecap="round" stroke-linejoin="round"/>
</svg>
