<svg width="42" height="40" viewBox="0 0 42 40" fill="none" xmlns="http://www.w3.org/2000/svg">
<path fill-rule="evenodd" clip-rule="evenodd" d="M37.8 6C37.8 4.896 36.8592 4 35.7 4H6.3C5.1408 4 4.2 4.896 4.2 6V34C4.2 35.104 5.1408 36 6.3 36H35.7C36.8592 36 37.8 35.104 37.8 34V6ZM42 4V36C42 38.21 40.1205 40 37.8 40H4.2C1.8795 40 0 38.21 0 36V4C0 1.79 1.8795 0 4.2 0H37.8C40.1205 0 42 1.79 42 4ZM29.4441 14.03C30.2652 14.81 30.2652 16.078 29.4441 16.858L21.2793 24.634C20.0466 25.806 18.0516 25.806 16.8189 24.634L13.1082 21.1C12.2892 20.32 12.2892 19.054 13.1082 18.272C13.9293 17.492 15.2586 17.492 16.0776 18.272L17.5602 19.684C18.3813 20.466 19.7148 20.466 20.538 19.684L26.4747 14.03C27.2937 13.248 28.6251 13.248 29.4441 14.03Z" fill="white"/>
</svg>
