<svg width="69" height="65" viewBox="0 0 69 65" fill="none" xmlns="http://www.w3.org/2000/svg">
<path d="M32.6868 0.863053C33.3106 0.307071 34.1158 0 34.95 0C35.7842 0 36.5894 0.307071 37.2132 0.863053L67.8891 28.2325C68.5303 28.844 68.9097 29.6816 68.947 30.5686C68.9843 31.4555 68.6767 32.3223 68.0891 32.9859C67.5015 33.6494 66.6799 34.0576 65.798 34.1244C64.9161 34.1912 64.0428 33.9113 63.3627 33.3438L62.2175 32.3277V58.1576C62.2175 59.9723 61.4992 61.7127 60.2208 62.9959C58.9424 64.2791 57.2085 65 55.4006 65H14.4994C12.6915 65 10.9576 64.2791 9.67919 62.9959C8.40078 61.7127 7.68258 59.9723 7.68258 58.1576V32.3277L6.53734 33.3438C5.85722 33.9113 4.98395 34.1912 4.10202 34.1244C3.22008 34.0576 2.39854 33.6494 1.81095 32.9859C1.22336 32.3223 0.915732 31.4555 0.953051 30.5686C0.99037 29.6816 1.36971 28.844 2.01095 28.2325L32.6868 0.863053ZM14.4994 26.238V58.1576H24.7247V41.0517C24.7247 40.1444 25.0838 39.2742 25.723 38.6326C26.3622 37.991 27.2292 37.6305 28.1332 37.6305H41.7669C42.6708 37.6305 43.5378 37.991 44.177 38.6326C44.8162 39.2742 45.1753 40.1444 45.1753 41.0517V58.1576H55.4006V26.2414L34.95 7.99622L14.4994 26.238ZM38.3584 58.1576V44.4729H31.5416V58.1576H38.3584Z" fill="#5D50FA"/>
</svg>
