<svg width="42" height="40" viewBox="0 0 42 40" fill="none" xmlns="http://www.w3.org/2000/svg">
<path d="M6.41667 0H35.5833C39.1272 0 42 2.73604 42 6.11111V33.8889C42 37.264 39.1272 40 35.5833 40H6.41667C2.87284 40 0 37.264 0 33.8889V6.11111C0 2.73604 2.87284 0 6.41667 0ZM6.41667 3.33333C4.80584 3.33333 3.5 4.57699 3.5 6.11111V33.8889C3.5 35.423 4.80584 36.6667 6.41667 36.6667H35.5833C37.1942 36.6667 38.5 35.423 38.5 33.8889V6.11111C38.5 4.57699 37.1942 3.33333 35.5833 3.33333H6.41667Z" fill="white"/>
</svg>
