<svg width="46" height="35" viewBox="0 0 46 35" fill="none" xmlns="http://www.w3.org/2000/svg">
<path d="M0.950012 24.3235C0.950012 21.9213 1.67482 19.809 3.14513 17.9452C4.61545 16.0815 6.49994 14.9011 8.81932 14.3834C9.29562 12.2504 10.2689 10.3866 11.7185 8.792C13.1681 7.19743 14.9284 6.05845 16.9578 5.37507C18.2418 4.94019 19.5671 4.71239 20.9546 4.71239C22.632 4.71239 24.268 5.04373 25.8212 5.70641C26.401 4.7331 27.0844 3.88404 27.8713 3.17995C28.6582 2.47585 29.4659 1.91672 30.2942 1.54396C31.1226 1.1712 31.9509 0.88128 32.7379 0.694902C33.5248 0.508524 34.3117 0.42569 35.0572 0.42569C35.8442 0.42569 36.6932 0.529233 37.6044 0.757029L39.3025 1.27475C39.5924 1.399 39.6753 1.54396 39.5924 1.73034L39.3025 2.97286C39.1576 3.61483 39.0954 4.21538 39.0954 4.75381C39.0954 5.39578 39.199 6.05845 39.4061 6.72113C39.6131 7.38381 39.9031 8.02578 40.3172 8.66775C40.7107 9.30972 41.2698 9.86886 41.9739 10.3866C42.678 10.9043 43.465 11.2978 44.3554 11.567L45.6394 12.0226C45.8465 12.0847 45.95 12.1882 45.95 12.3539C45.95 12.3953 45.9293 12.4367 45.9086 12.4989L45.5358 13.8863C44.9767 16.1229 43.9206 17.8831 42.4295 19.2085C43.2579 20.6581 43.7135 22.2112 43.7756 23.8472C43.7963 23.9508 43.7963 24.0957 43.7963 24.3235C43.7963 26.1666 43.3407 27.8854 42.4088 29.4593C41.4976 31.0331 40.2344 32.2757 38.6813 33.1868C37.1074 34.098 35.3886 34.5743 33.5455 34.5743H11.1594C9.31633 34.5743 7.5975 34.1187 6.02364 33.1868C4.44978 32.255 3.22797 31.0124 2.31679 29.4593C1.4056 27.9061 0.950012 26.1873 0.950012 24.3235ZM4.4912 24.3235C4.4912 26.1666 5.15388 27.7612 6.47923 29.1072C7.80459 30.4533 9.35774 31.1367 11.1594 31.1367H33.5455C35.3886 31.1367 36.9624 30.474 38.2671 29.1279C39.5717 27.7819 40.2344 26.1873 40.2344 24.3235C40.2344 22.5012 39.5717 20.948 38.2464 19.6434C36.921 18.3387 35.3472 17.676 33.5248 17.676H29.8386L29.6316 16.1229C29.4245 14.0313 28.5547 12.2296 27.0223 10.7593C25.4898 9.28901 23.6675 8.46066 21.5759 8.27428C21.5138 8.27428 21.4102 8.27429 21.2652 8.25358C21.1203 8.23287 21.0374 8.23287 20.9546 8.23287C19.8985 8.23287 18.8423 8.43996 17.7655 8.83342V8.792C16.2537 9.37185 14.9698 10.3244 13.9551 11.6291C12.9196 12.9337 12.2984 14.4248 12.0913 16.1229L11.9463 17.6139L10.5381 17.676C8.79861 17.8831 7.349 18.6079 6.18931 19.8712C5.02963 21.1344 4.4912 22.6047 4.4912 24.3235ZM28.8239 7.52877C31.019 9.41326 32.3858 11.6084 32.9035 14.1141H33.5662C36.1341 14.1141 38.3292 14.9218 40.1309 16.5578C40.8143 15.9158 41.332 15.1703 41.7047 14.3419C39.8202 13.4515 38.3292 12.0847 37.2317 10.2623C36.1548 8.43995 35.5957 6.51405 35.5957 4.5053V4.00829C35.4921 3.98759 35.3265 3.98759 35.0987 3.98759C33.8975 3.96688 32.7172 4.2568 31.5782 4.89877C30.4392 5.52003 29.5073 6.38979 28.8239 7.52877Z" fill="#5D50FA"/>
</svg>
