<svg width="46" height="35" viewBox="0 0 46 35" fill="none" xmlns="http://www.w3.org/2000/svg">
<path d="M35.825 25.9375H37.7938C38.3563 25.9375 38.9188 25.375 38.9188 24.8125V4.5625C38.9188 4 38.3563 3.4375 37.7938 3.4375H35.825C35.2625 3.4375 34.7 4 34.7 4.5625V24.8125C34.7 25.375 35.2625 25.9375 35.825 25.9375ZM18.95 25.9375H20.9188C21.4813 25.9375 22.0438 25.375 22.0438 24.8125V7.375C22.0438 6.8125 21.4813 6.25 20.9188 6.25H18.95C18.3875 6.25 17.825 6.8125 17.825 7.375V24.8125C17.825 25.375 18.3875 25.9375 18.95 25.9375ZM27.3875 25.9375H29.3563C29.9188 25.9375 30.4813 25.375 30.4813 24.8125V13C30.4813 12.4375 29.9188 11.875 29.3563 11.875H27.3875C26.825 11.875 26.2625 12.4375 26.2625 13V24.8125C26.2625 25.375 26.825 25.9375 27.3875 25.9375ZM44.5438 30.1562H5.16876V2.03125C5.16876 1.2543 4.53947 0.625 3.76251 0.625H2.35626C1.57931 0.625 0.950012 1.2543 0.950012 2.03125V31.5625C0.950012 33.1155 2.20948 34.375 3.76251 34.375H44.5438C45.3207 34.375 45.95 33.7457 45.95 32.9688V31.5625C45.95 30.7855 45.3207 30.1562 44.5438 30.1562ZM10.5125 25.9375H12.4813C13.0438 25.9375 13.6063 25.375 13.6063 24.8125V18.625C13.6063 18.0625 13.0438 17.5 12.4813 17.5H10.5125C9.95001 17.5 9.38751 18.0625 9.38751 18.625V24.8125C9.38751 25.375 9.95001 25.9375 10.5125 25.9375Z" fill="#5D50FA"/>
</svg>
