<svg width="39" height="40" viewBox="0 0 39 40" fill="none" xmlns="http://www.w3.org/2000/svg">
<path d="M36.8333 19.9881C36.8333 29.607 29.0356 37.4048 19.4167 37.4048C9.79771 37.4048 2 29.607 2 19.9881C2 10.3691 9.79771 2.57143 19.4167 2.57143C29.0356 2.57143 36.8333 10.3691 36.8333 19.9881ZM5.17748 19.9881C5.17748 27.8522 11.5526 34.2273 19.4167 34.2273C27.2808 34.2273 33.6559 27.8522 33.6559 19.9881C33.6559 12.124 27.2808 5.74891 19.4167 5.74891C11.5526 5.74891 5.17748 12.124 5.17748 19.9881Z" fill="#888888"/>
<path d="M19.4166 8.66171C18.523 8.66171 17.7986 9.38612 17.7986 10.2798V20.7432C17.7986 20.7432 17.7986 21.1651 18.0036 21.4824C18.1408 21.7515 18.3547 21.9853 18.6358 22.1476L26.1109 26.4634C26.8848 26.9101 27.8744 26.6449 28.3211 25.871C28.7679 25.0971 28.5028 24.1075 27.7289 23.6608L21.0347 19.7959V10.2798C21.0347 9.38614 20.3103 8.66171 19.4166 8.66171Z" fill="#888888"/>
</svg>
