<svg width="33" height="29" viewBox="0 0 33 29" fill="none" xmlns="http://www.w3.org/2000/svg">
<path fill-rule="evenodd" clip-rule="evenodd" d="M10.8294 0.000184688C10.8862 0.000293435 10.9431 0.000383896 11 0.000383896C11.057 0.000383896 11.1138 0.000293435 11.1707 0.000184688C11.8466 -0.00092091 12.511 -0.00200889 13.1028 0.154768C14.6846 0.573754 15.9199 1.79511 16.3438 3.35877C16.5024 3.9439 16.5013 4.60076 16.5002 5.26904C16.5002 5.32521 16.5 5.38145 16.5 5.43775H31.1667C32.1792 5.43775 33 6.2492 33 7.2502C33 8.25118 32.1792 9.06266 31.1667 9.06266H16.5C16.5 9.11895 16.5002 9.17519 16.5002 9.23136C16.5013 9.89965 16.5024 10.5565 16.3438 11.1417C15.9199 12.7053 14.6846 13.9267 13.1028 14.3456C12.511 14.5024 11.8466 14.5013 11.1707 14.5002C11.1138 14.5002 11.057 14.5 11 14.5C10.9431 14.5 10.8862 14.5002 10.8294 14.5002C10.1534 14.5013 9.48895 14.5024 8.89708 14.3456C7.3154 13.9267 6.07997 12.7053 5.65618 11.1417C5.49758 10.5565 5.49868 9.89965 5.49982 9.23134C5.49991 9.17519 5.5 9.11893 5.5 9.06266H1.83333C0.82082 9.06266 0 8.25118 0 7.2502C0 6.2492 0.82082 5.43775 1.83333 5.43775H5.5C5.5 5.38145 5.49991 5.32521 5.49982 5.26904C5.49868 4.60076 5.49758 3.9439 5.65618 3.35877C6.07997 1.79511 7.3154 0.573754 8.89708 0.154768C9.48895 -0.00200889 10.1534 -0.00092091 10.8294 0.000184688ZM10.0808 3.63499C9.88524 3.6438 9.83923 3.65799 9.84608 3.65616C9.52974 3.73997 9.28266 3.98423 9.19791 4.29697C9.19637 4.30333 9.18432 4.35901 9.17648 4.52898C9.16711 4.73203 9.16667 4.99993 9.16667 5.43775V9.06266C9.16667 9.50045 9.16711 9.76835 9.17648 9.9714C9.18539 10.1647 9.19974 10.2102 9.19791 10.2034C9.28266 10.5162 9.52974 10.7604 9.84608 10.8442C9.83923 10.8424 9.88524 10.8566 10.0808 10.8654C10.2862 10.8747 10.5571 10.8751 11 10.8751C11.4429 10.8751 11.7139 10.8747 11.9192 10.8654C12.1147 10.8566 12.1607 10.8424 12.1539 10.8442C12.4703 10.7604 12.7173 10.5162 12.8022 10.2034C12.8003 10.2102 12.8146 10.1647 12.8234 9.9714C12.833 9.76835 12.8333 9.50045 12.8333 9.06266V5.43775C12.8333 4.99993 12.833 4.73203 12.8234 4.52898C12.8146 4.33568 12.8003 4.29019 12.8022 4.29697M10.0808 3.63499C10.2862 3.62573 10.5571 3.62529 11 3.62529L10.0808 3.63499ZM11 3.62529C11.4429 3.62529 11.7139 3.62573 11.9192 3.63499L11 3.62529ZM11.9192 3.63499C12.0912 3.64273 12.1475 3.65464 12.1539 3.65616L11.9192 3.63499ZM21.8293 14.4998C21.8862 14.5 21.943 14.5 22 14.5C22.057 14.5 22.1138 14.5 22.1707 14.4998C22.8466 14.4987 23.511 14.4976 24.1028 14.6544C25.6846 15.0735 26.9199 16.2947 27.3438 17.8585C27.5024 18.4435 27.5013 19.1004 27.5002 19.7686C27.5002 19.8248 27.5 19.881 27.5 19.9374H31.1667C32.1792 19.9374 33 20.7488 33 21.7498C33 22.7508 32.1792 23.5623 31.1667 23.5623H27.5C27.5 23.6186 27.5002 23.6748 27.5002 23.731C27.5013 24.3993 27.5024 25.0561 27.3438 25.6413C26.9199 27.2049 25.6846 28.4264 24.1028 28.8452C23.511 29.002 22.8466 29.0009 22.1707 28.9998C22.1138 28.9998 22.057 28.9996 22 28.9996C21.943 28.9996 21.8862 28.9998 21.8293 28.9998C21.1534 29.0009 20.489 29.002 19.8972 28.8452C18.3154 28.4264 17.0801 27.2049 16.6562 25.6413C16.4976 25.0561 16.4987 24.3993 16.4998 23.731C16.4998 23.6748 16.5 23.6186 16.5 23.5623H1.83333C0.82082 23.5623 0 22.7508 0 21.7498C0 20.7488 0.82082 19.9374 1.83333 19.9374H16.5C16.5 19.8812 16.4998 19.8248 16.4998 19.7686C16.4987 19.1004 16.4976 18.4435 16.6562 17.8585C17.0801 16.2947 18.3154 15.0735 19.8972 14.6544C20.489 14.4976 21.1534 14.4987 21.8293 14.4998ZM21.0808 18.1347C20.8853 18.1434 20.8393 18.1575 20.8461 18.1557C20.5297 18.2396 20.2827 18.484 20.1978 18.7966C20.1997 18.7899 20.1854 18.8354 20.1766 19.0286C20.167 19.2316 20.1667 19.4997 20.1667 19.9374V23.5623C20.1667 24.0002 20.167 24.268 20.1766 24.471C20.1854 24.6644 20.1997 24.7099 20.1978 24.703C20.2827 25.0159 20.5297 25.26 20.8461 25.3439C20.8393 25.3421 20.8853 25.3562 21.0808 25.3651C21.2861 25.3744 21.5571 25.3747 22 25.3747C22.4429 25.3747 22.7139 25.3744 22.9192 25.3651C23.1147 25.3562 23.1607 25.3421 23.1539 25.3439C23.4703 25.26 23.7173 25.0159 23.8022 24.703C23.8003 24.7099 23.8146 24.6644 23.8234 24.471C23.833 24.268 23.8333 24.0002 23.8333 23.5623V19.9374C23.8333 19.4997 23.833 19.2316 23.8234 19.0286C23.8146 18.8354 23.8003 18.7899 23.8022 18.7966C23.7173 18.484 23.4703 18.2396 23.1539 18.1557C23.1607 18.1575 23.1147 18.1434 22.9192 18.1347C22.7139 18.1253 22.4429 18.1249 22 18.1249C21.5571 18.1249 21.2861 18.1253 21.0808 18.1347Z" fill="white"/>
</svg>
