<svg width="33" height="37" viewBox="0 0 33 37" fill="none" xmlns="http://www.w3.org/2000/svg">
<path d="M10.9881 20.5714H8.13091C7.65948 20.5714 7.27377 20.1857 7.27377 19.7143V16.8571C7.27377 16.3857 7.65948 16 8.13091 16H10.9881C11.4595 16 11.8452 16.3857 11.8452 16.8571V19.7143C11.8452 20.1857 11.4595 20.5714 10.9881 20.5714ZM18.7023 19.7143V16.8571C18.7023 16.3857 18.3166 16 17.8452 16H14.9881C14.5166 16 14.1309 16.3857 14.1309 16.8571V19.7143C14.1309 20.1857 14.5166 20.5714 14.9881 20.5714H17.8452C18.3166 20.5714 18.7023 20.1857 18.7023 19.7143ZM25.5595 19.7143V16.8571C25.5595 16.3857 25.1738 16 24.7023 16H21.8452C21.3738 16 20.9881 16.3857 20.9881 16.8571V19.7143C20.9881 20.1857 21.3738 20.5714 21.8452 20.5714H24.7023C25.1738 20.5714 25.5595 20.1857 25.5595 19.7143ZM18.7023 26.5714V23.7143C18.7023 23.2429 18.3166 22.8571 17.8452 22.8571H14.9881C14.5166 22.8571 14.1309 23.2429 14.1309 23.7143V26.5714C14.1309 27.0429 14.5166 27.4286 14.9881 27.4286H17.8452C18.3166 27.4286 18.7023 27.0429 18.7023 26.5714ZM11.8452 26.5714V23.7143C11.8452 23.2429 11.4595 22.8571 10.9881 22.8571H8.13091C7.65948 22.8571 7.27377 23.2429 7.27377 23.7143V26.5714C7.27377 27.0429 7.65948 27.4286 8.13091 27.4286H10.9881C11.4595 27.4286 11.8452 27.0429 11.8452 26.5714ZM25.5595 26.5714V23.7143C25.5595 23.2429 25.1738 22.8571 24.7023 22.8571H21.8452C21.3738 22.8571 20.9881 23.2429 20.9881 23.7143V26.5714C20.9881 27.0429 21.3738 27.4286 21.8452 27.4286H24.7023C25.1738 27.4286 25.5595 27.0429 25.5595 26.5714ZM32.4166 8V33.1429C32.4166 35.0357 30.8809 36.5714 28.9881 36.5714H3.8452C1.95234 36.5714 0.416626 35.0357 0.416626 33.1429V8C0.416626 6.10714 1.95234 4.57143 3.8452 4.57143H7.27377V0.857143C7.27377 0.385714 7.65948 0 8.13091 0H10.9881C11.4595 0 11.8452 0.385714 11.8452 0.857143V4.57143H20.9881V0.857143C20.9881 0.385714 21.3738 0 21.8452 0H24.7023C25.1738 0 25.5595 0.385714 25.5595 0.857143V4.57143H28.9881C30.8809 4.57143 32.4166 6.10714 32.4166 8ZM28.9881 32.7143V11.4286H3.8452V32.7143C3.8452 32.95 4.03805 33.1429 4.27377 33.1429H28.5595C28.7952 33.1429 28.9881 32.95 28.9881 32.7143Z" fill="#888888"/>
</svg>
